<svg width="91" height="18" viewBox="0 0 91 18" fill="none" xmlns="http://www.w3.org/2000/svg">
<path d="M6.93602 17.352C6.47202 17.352 6.16802 17.128 6.02402 16.68L0.31202 1.44C0.10402 0.832002 0.29602 0.528002 0.88802 0.528002C1.35202 0.528002 1.65602 0.744002 1.80002 1.176L6.93602 15.12L12.072 1.176C12.216 0.744002 12.52 0.528002 12.984 0.528002C13.256 0.528002 13.44 0.616002 13.536 0.792003C13.632 0.952003 13.632 1.168 13.536 1.44L7.84802 16.68C7.67202 17.128 7.36802 17.352 6.93602 17.352ZM19.6166 17.592C18.5926 17.592 17.6806 17.336 16.8806 16.824C16.0806 16.312 15.4486 15.608 14.9846 14.712C14.5206 13.8 14.2886 12.752 14.2886 11.568C14.2886 10.384 14.5206 9.344 14.9846 8.448C15.4486 7.536 16.0806 6.824 16.8806 6.312C17.6806 5.8 18.5926 5.544 19.6166 5.544C20.6566 5.544 21.5766 5.8 22.3766 6.312C23.1766 6.824 23.8086 7.536 24.2726 8.448C24.7366 9.344 24.9686 10.384 24.9686 11.568C24.9686 12.752 24.7366 13.8 24.2726 14.712C23.8086 15.608 23.1766 16.312 22.3766 16.824C21.5766 17.336 20.6566 17.592 19.6166 17.592ZM19.6166 16.224C20.3686 16.224 21.0326 16.032 21.6086 15.648C22.2006 15.264 22.6646 14.728 23.0006 14.04C23.3366 13.336 23.5046 12.512 23.5046 11.568C23.5046 10.624 23.3366 9.808 23.0006 9.12C22.6646 8.416 22.2006 7.872 21.6086 7.488C21.0326 7.104 20.3686 6.912 19.6166 6.912C18.4966 6.912 17.5686 7.336 16.8326 8.184C16.1126 9.016 15.7526 10.144 15.7526 11.568C15.7526 12.976 16.1126 14.104 16.8326 14.952C17.5686 15.8 18.4966 16.224 19.6166 16.224ZM28.6181 17.328C28.1221 17.328 27.8741 17.064 27.8741 16.536V0.792003C27.8741 0.264002 28.1221 1.43051e-06 28.6181 1.43051e-06C29.0981 1.43051e-06 29.3381 0.264002 29.3381 0.792003V16.536C29.3381 17.064 29.0981 17.328 28.6181 17.328ZM37.6172 17.592C36.5772 17.592 35.6492 17.352 34.8332 16.872C34.0332 16.376 33.4012 15.68 32.9372 14.784C32.4892 13.872 32.2652 12.8 32.2652 11.568C32.2652 10.368 32.4892 9.32 32.9372 8.424C33.4012 7.528 34.0332 6.832 34.8332 6.336C35.6332 5.824 36.5452 5.568 37.5692 5.568C38.6092 5.568 39.4892 5.824 40.2092 6.336C40.9452 6.848 41.5052 7.496 41.8892 8.28C42.2732 9.064 42.4652 9.864 42.4652 10.68C42.4652 10.968 42.3932 11.168 42.2492 11.28C42.1212 11.392 41.9292 11.448 41.6732 11.448H33.7292C33.6972 12.888 34.0332 14.056 34.7372 14.952C35.4572 15.832 36.4252 16.272 37.6412 16.272C39.1452 16.272 40.2652 15.592 41.0012 14.232C41.3212 13.816 41.6492 13.704 41.9852 13.896C42.4012 14.168 42.4572 14.528 42.1532 14.976C41.1452 16.72 39.6332 17.592 37.6172 17.592ZM33.8252 10.2H41.0252C40.9452 9.576 40.7452 9.008 40.4252 8.496C40.1212 7.984 39.7212 7.576 39.2252 7.272C38.7452 6.968 38.1932 6.816 37.5692 6.816C36.5932 6.816 35.7692 7.12 35.0972 7.728C34.4412 8.32 34.0172 9.144 33.8252 10.2ZM49.9871 17.592C48.9631 17.592 48.1951 17.376 47.6831 16.944C47.1711 16.512 46.9151 15.736 46.9151 14.616V7.176H45.2111C44.6831 7.176 44.4191 6.944 44.4191 6.48C44.4191 6.048 44.6831 5.832 45.2111 5.832H46.9151V2.4C46.9151 1.872 47.1551 1.608 47.6351 1.608C48.1151 1.608 48.3551 1.872 48.3551 2.4V5.832H51.0671C51.5951 5.832 51.8591 6.048 51.8591 6.48C51.8591 6.944 51.5951 7.176 51.0671 7.176H48.3551V14.376C48.3551 15.096 48.5071 15.592 48.8111 15.864C49.1151 16.12 49.5871 16.248 50.2271 16.248C50.3071 16.248 50.3871 16.248 50.4671 16.248C50.5631 16.232 50.6511 16.224 50.7311 16.224C51.0511 16.208 51.3151 16.224 51.5231 16.272C51.7471 16.304 51.8591 16.472 51.8591 16.776C51.8591 17.128 51.6671 17.352 51.2831 17.448C50.8991 17.544 50.4671 17.592 49.9871 17.592ZM58.434 17.592C57.218 17.592 56.234 17.2 55.482 16.416C54.73 15.632 54.354 14.512 54.354 13.056V6.624C54.354 6.096 54.594 5.832 55.074 5.832C55.554 5.832 55.794 6.096 55.794 6.624V12.864C55.794 13.984 56.058 14.824 56.586 15.384C57.13 15.944 57.826 16.224 58.674 16.224C59.65 16.224 60.442 15.92 61.05 15.312C61.658 14.704 61.962 13.96 61.962 13.08V6.624C61.962 6.096 62.21 5.832 62.706 5.832C63.186 5.832 63.426 6.096 63.426 6.624V16.512C63.426 17.04 63.202 17.304 62.754 17.304C62.29 17.304 62.058 17.128 62.058 16.776L62.01 15.696C61.674 16.224 61.194 16.672 60.57 17.04C59.946 17.408 59.234 17.592 58.434 17.592ZM71.6713 17.592C70.6473 17.592 69.7353 17.344 68.9353 16.848C68.1353 16.336 67.5033 15.632 67.0393 14.736C66.5753 13.824 66.3433 12.768 66.3433 11.568C66.3433 10.368 66.5753 9.32 67.0393 8.424C67.5033 7.528 68.1353 6.832 68.9353 6.336C69.7353 5.824 70.6473 5.568 71.6713 5.568C72.5353 5.568 73.3033 5.776 73.9753 6.192C74.6473 6.592 75.1833 7.144 75.5833 7.848V0.792003C75.5833 0.264002 75.8233 1.43051e-06 76.3033 1.43051e-06C76.7993 1.43051e-06 77.0473 0.264002 77.0473 0.792003V16.536C77.0473 17.064 76.8233 17.328 76.3753 17.328C75.9273 17.328 75.7033 17.16 75.7033 16.824L75.6793 15.216C75.2633 15.952 74.7113 16.536 74.0233 16.968C73.3353 17.384 72.5513 17.592 71.6713 17.592ZM71.7193 16.224C72.4713 16.224 73.1353 16.032 73.7113 15.648C74.3033 15.264 74.7673 14.728 75.1033 14.04C75.4393 13.336 75.6073 12.512 75.6073 11.568C75.6073 10.624 75.4393 9.808 75.1033 9.12C74.7673 8.432 74.3033 7.896 73.7113 7.512C73.1353 7.128 72.4713 6.936 71.7193 6.936C70.9673 6.936 70.2953 7.128 69.7033 7.512C69.1113 7.896 68.6473 8.432 68.3113 9.12C67.9753 9.808 67.8073 10.624 67.8073 11.568C67.8073 12.512 67.9753 13.336 68.3113 14.04C68.6473 14.728 69.1113 15.264 69.7033 15.648C70.2953 16.032 70.9673 16.224 71.7193 16.224ZM85.312 17.592C84.288 17.592 83.376 17.336 82.576 16.824C81.776 16.312 81.144 15.608 80.68 14.712C80.216 13.8 79.984 12.752 79.984 11.568C79.984 10.384 80.216 9.344 80.68 8.448C81.144 7.536 81.776 6.824 82.576 6.312C83.376 5.8 84.288 5.544 85.312 5.544C86.352 5.544 87.272 5.8 88.072 6.312C88.872 6.824 89.504 7.536 89.968 8.448C90.432 9.344 90.664 10.384 90.664 11.568C90.664 12.752 90.432 13.8 89.968 14.712C89.504 15.608 88.872 16.312 88.072 16.824C87.272 17.336 86.352 17.592 85.312 17.592ZM85.312 16.224C86.064 16.224 86.728 16.032 87.304 15.648C87.896 15.264 88.36 14.728 88.696 14.04C89.032 13.336 89.2 12.512 89.2 11.568C89.2 10.624 89.032 9.808 88.696 9.12C88.36 8.416 87.896 7.872 87.304 7.488C86.728 7.104 86.064 6.912 85.312 6.912C84.192 6.912 83.264 7.336 82.528 8.184C81.808 9.016 81.448 10.144 81.448 11.568C81.448 12.976 81.808 14.104 82.528 14.952C83.264 15.8 84.192 16.224 85.312 16.224Z" fill="currentColor"/>
</svg>
